<?xml version="1.0" encoding="utf-8"?>
<svg viewBox="99.974 137.588 744.379 596.792" width="737.583" height="582.787" style="enable-background:new 100 100 700 700;" xmlns="http://www.w3.org/2000/svg">
  <defs>
    <style type="text/css">
	.st0{stroke:#000000;stroke-width:0.7215;stroke-miterlimit:10;}
</style>
  </defs>
  <path class="st0" d="M 472.17 145.561 C 315.54 145.561 178.79 261.991 105.63 435.031 C 127.32 486.321 154.59 532.631 186.3 572.411 L 186.3 435.031 C 221.98 435.031 250.91 463.961 250.91 499.641 L 250.91 639.141 C 259.75 646.571 268.81 653.571 278.06 660.111 L 278.06 435.031 C 313.74 435.031 342.67 463.961 342.67 499.641 L 342.67 696.871 C 351.9 700.931 361.28 704.571 370.77 707.761 L 370.77 549.881 C 406.45 549.881 435.38 578.811 435.38 614.491 L 435.38 722.341 C 447.5 723.771 459.77 724.501 472.17 724.501 C 628.8 724.501 765.55 608.071 838.71 435.031 C 765.55 261.991 628.8 145.561 472.17 145.561 Z M 645.72 558.191 C 577.7 558.191 522.56 503.051 522.56 435.031 C 522.56 367.011 577.7 311.871 645.72 311.871 C 713.74 311.871 768.88 367.011 768.88 435.031 C 768.88 503.051 713.73 558.191 645.72 558.191 Z"/>
</svg>